<svg xmlns="http://www.w3.org/2000/svg" viewBox="0 0 96 96">
  <title>ballot, box, vote</title>
  <path d="M87.7891,41.1055l-8-16A2.0008,2.0008,0,0,0,78,24H64V10a1.9988,1.9988,0,0,0-2-2H34a1.9988,1.9988,0,0,0-2,2V24H18a2.0008,2.0008,0,0,0-1.7891,1.1055l-8,16A2.0021,2.0021,0,0,0,8,42V86a1.9988,1.9988,0,0,0,2,2H86a1.9988,1.9988,0,0,0,2-2V42A2.0021,2.0021,0,0,0,87.7891,41.1055ZM36,12H60V32H36ZM19.2363,28H32v4H30a2,2,0,0,0,0,4H66a2,2,0,0,0,0-4H64V28H76.7637l6,12H13.2363ZM84,84H12V44H84Z" />
</svg>
