<?xml version="1.0" encoding="utf-8"?>
<!-- Generator: Adobe Illustrator 27.7.0, SVG Export Plug-In . SVG Version: 6.00 Build 0)  -->
<svg version="1.1" id="圖層_1" xmlns="http://www.w3.org/2000/svg" xmlns:xlink="http://www.w3.org/1999/xlink" x="0px" y="0px"
	 viewBox="0 0 256 256" style="enable-background:new 0 0 256 256;" xml:space="preserve">
<style type="text/css">
	.st0{fill:#231F20;}
	.st1{fill:#0045F7;}
	.st2{fill:url(#SVGID_1_);}
	.st3{fill:url(#SVGID_00000036946653914132983370000010326785886278517685_);}
	.st4{fill:url(#SVGID_00000111899782847384417200000013681543638173683596_);}
</style>
<g>
	<polygon class="st0" points="206.9,78 206.9,78 206.8,78 	"/>
	<polygon class="st1" points="206.9,111.3 206.9,144.6 238.4,127.9 	"/>
	<linearGradient id="SVGID_1_" gradientUnits="userSpaceOnUse" x1="175.35" y1="93.3626" x2="175.35" y2="189.8934">
		<stop  offset="0.1675" style="stop-color:#0045F7"/>
		<stop  offset="0.5253" style="stop-color:#007AF5"/>
		<stop  offset="0.9114" style="stop-color:#00B7F3"/>
	</linearGradient>
	<polygon class="st2" points="206.9,144.6 143.8,178 143.8,111.2 206.9,77.9 	"/>
	
		<linearGradient id="SVGID_00000000222714270663906210000007449299453142067375_" gradientUnits="userSpaceOnUse" x1="94.9303" y1="51.6282" x2="181.6889" y2="98.4434">
		<stop  offset="0.1675" style="stop-color:#0045F7"/>
		<stop  offset="0.3354" style="stop-color:#3545DF"/>
		<stop  offset="0.7177" style="stop-color:#B945A5"/>
		<stop  offset="0.9114" style="stop-color:#FE4586"/>
	</linearGradient>
	<path style="fill:url(#SVGID_00000000222714270663906210000007449299453142067375_);" d="M80.7,78l63.1,33.3v0l63-33.3l-63-33.4
		L80.7,78z M143.8,98.6l-39-20.6l39-20.6l39,20.6L143.8,98.6z"/>
	<polygon class="st1" points="51.8,129.4 80.7,114.1 80.7,144.7 	"/>
	<g>
		<g>
			
				<linearGradient id="SVGID_00000158015118479801058870000011077823459007908528_" gradientUnits="userSpaceOnUse" x1="17.6" y1="178.05" x2="143.8" y2="178.05">
				<stop  offset="0.1675" style="stop-color:#0045F7"/>
				<stop  offset="0.5253" style="stop-color:#007AF5"/>
				<stop  offset="0.9114" style="stop-color:#00B7F3"/>
			</linearGradient>
			<polygon style="fill:url(#SVGID_00000158015118479801058870000011077823459007908528_);" points="143.8,178 80.7,211.4 17.6,178 
				80.7,144.7 114.9,162.8 			"/>
		</g>
	</g>
</g>
</svg>
