<?xml version="1.0" encoding="utf-8"?>
<!-- Generator: Adobe Illustrator 27.7.0, SVG Export Plug-In . SVG Version: 6.00 Build 0)  -->
<svg version="1.1" id="圖層_1" xmlns="http://www.w3.org/2000/svg" xmlns:xlink="http://www.w3.org/1999/xlink" x="0px" y="0px"
	 viewBox="0 0 256 256" style="enable-background:new 0 0 256 256;" xml:space="preserve">
<g>
	<polygon  points="43.9,191.1 34.2,235.4 24.5,191.1 18.9,191.1 30.8,245 37.4,245 49.2,191.1 	"/>
	<path  d="M64.1,190.6c-7.7,0-12.3,5.3-12.3,14.1v26.5c0,8.8,4.6,14.1,12.3,14.1c7.9,0,12.5-5.1,12.5-14.1v-26.5
		C76.6,195.8,72.1,190.6,64.1,190.6z M64.1,240.3c-4.6,0-6.9-3-6.9-8.8v-27c0-5.8,2.3-8.8,6.9-8.8c5.9,0,7.1,4.8,7.1,8.8v27
		C71.2,235.5,70,240.3,64.1,240.3z"/>
	<polygon  points="78.6,191.1 78.6,196.2 89.2,196.2 89.2,245 94.7,245 94.7,196.2 105.2,196.2 105.2,191.1 	"/>
	<polygon  points="130.1,196.2 130.1,191.1 107.6,191.1 107.6,245 130.1,245 130.1,239.9 113,239.9 113,220.2 
		127.2,220.2 127.2,215.1 113,215.1 113,196.2 	"/>
	<polygon  points="169.1,191.1 159.4,235.4 149.7,191.1 144.2,191.1 156,245 162.7,245 174.4,191.1 	"/>
	<rect x="177.3" y="191.1"  width="5.4" height="53.9"/>
	<path  d="M205.5,216.3c4.1-2.1,4.7-6.3,4.7-10.2v-3c0-8.2-3.7-12-11.6-12h-11.9V245h12.1c8.1,0,12.3-4.5,12.3-13v-4.5
		C211.1,221.9,209.2,218.1,205.5,216.3z M196.9,214h-4.8v-17.8h6.4c4.6,0,6.3,1.9,6.3,7.2v3.3C204.8,212.3,202.9,214,196.9,214z
		 M198.8,239.9h-6.7v-20.8h5.5c5.9,0,8.2,2.3,8.2,8.1v4.7C205.7,237.5,203.7,239.9,198.8,239.9z"/>
	<polygon  points="237.2,196.2 237.2,191.1 214.7,191.1 214.7,245 237.2,245 237.2,239.9 220.1,239.9 220.1,220.2 
		234.3,220.2 234.3,215.1 220.1,215.1 220.1,196.2 	"/>
</g>
<g>
	<g>
		<polygon points="144.1,141.8 81,175.1 18,141.8 81,108.4 115.2,126.5 		"/>
		<path d="M207.2,75.1V41.7L144.1,8.4L81,41.7l63.1,33.3v66.7l63.1-33.4l31.5-16.7L207.2,75.1z M105.1,41.7l39-20.6l39,20.6
			l-39,20.6L105.1,41.7z"/>
		<polygon points="52.1,93.2 81,77.9 81,108.4 		"/>
	</g>
</g>
</svg>
